<svg xmlns="http://www.w3.org/2000/svg" viewBox="0 0 256 256">
  <ellipse cx="128" cy="208" rx="58" ry="30" fill="#b070ff" opacity="0.28"/>
  <polygon points="8,155 105,122 112,148 40,180" fill="#b070ff"/>
  <polygon points="248,155 151,122 144,148 216,180" fill="#b070ff"/>
  <polygon points="128,28 152,90 160,172 128,215 96,172 104,90" fill="#c090ff"/>
  <polygon points="128,28 148,88 148,165 128,200 108,165 108,88" fill="#f0e0ff" opacity="0.4"/>
  <ellipse cx="128" cy="88" rx="17" ry="26" fill="#f5ecff"/>
  <ellipse cx="128" cy="82" rx="9" ry="14" fill="#d0a8ff" opacity="0.55"/>
  <rect x="98" y="172" width="15" height="34" rx="4" fill="#4a2088"/>
  <rect x="143" y="172" width="15" height="34" rx="4" fill="#4a2088"/>
  <rect x="118" y="178" width="20" height="28" rx="4" fill="#5a28a0"/>
  <ellipse cx="105" cy="212" rx="10" ry="8" fill="#d0a0ff"/>
  <ellipse cx="150" cy="212" rx="10" ry="8" fill="#d0a0ff"/>
  <ellipse cx="128" cy="212" rx="11" ry="8" fill="#e0c0ff"/>
  <circle cx="128" cy="32" r="8" fill="#ffffff"/>
  <circle cx="42" cy="152" r="10" fill="#c080ff"/>
  <circle cx="214" cy="152" r="10" fill="#c080ff"/>
</svg>
