<svg xmlns="http://www.w3.org/2000/svg" viewBox="0 0 256 256">
  <ellipse cx="128" cy="212" rx="50" ry="26" fill="#ff6a3d" opacity="0.25"/>
  <polygon points="12,135 115,115 118,135 50,160" fill="#ff6a3d"/>
  <polygon points="244,135 141,115 138,135 206,160" fill="#ff6a3d"/>
  <polygon points="128,14 150,80 156,180 128,228 100,180 106,80" fill="#ff8a50"/>
  <polygon points="128,14 145,75 145,165 128,210 111,165 111,75" fill="#ffe0d0" opacity="0.4"/>
  <ellipse cx="128" cy="75" rx="13" ry="24" fill="#fff0e8"/>
  <ellipse cx="128" cy="70" rx="7" ry="12" fill="#ffb080" opacity="0.55"/>
  <rect x="108" y="178" width="14" height="34" rx="4" fill="#a02810"/>
  <rect x="134" y="178" width="14" height="34" rx="4" fill="#a02810"/>
  <ellipse cx="115" cy="218" rx="10" ry="8" fill="#ffb060"/>
  <ellipse cx="141" cy="218" rx="10" ry="8" fill="#ffb060"/>
  <circle cx="128" cy="20" r="7" fill="#ffffff"/>
  <polygon points="85,95 115,100 115,112 82,105" fill="#ff9040"/>
  <polygon points="171,95 141,100 141,112 174,105" fill="#ff9040"/>
</svg>
