mtllib boss.mtl
o boss
v 3.40000 2.60000 1.30000
v -3.40000 2.60000 1.30000
v -3.40000 -2.60000 1.30000
v 3.40000 -2.60000 1.30000
v 3.40000 2.60000 -1.30000
v -3.40000 2.60000 -1.30000
v -3.40000 -2.60000 -1.30000
v 3.40000 -2.60000 -1.30000
v 4.30000 0.00000 0.20000
v 1.30000 -2.20000 -0.90000
v 1.30000 2.20000 -0.90000
v 1.30000 -2.20000 1.30000
v 1.30000 2.20000 1.30000
v 3.17500 -1.76000 -0.51500
v 3.17500 1.76000 -0.51500
v 3.17500 -1.76000 0.91500
v 3.17500 1.76000 0.91500
v -3.80000 -1.52000 -0.15000
v -1.80000 -1.52000 -0.15000
v -3.80000 -1.58431 0.09000
v -1.80000 -1.58431 0.09000
v -3.80000 -1.76000 0.26569
v -1.80000 -1.76000 0.26569
v -3.80000 -2.00000 0.33000
v -1.80000 -2.00000 0.33000
v -3.80000 -2.24000 0.26569
v -1.80000 -2.24000 0.26569
v -3.80000 -2.41569 0.09000
v -1.80000 -2.41569 0.09000
v -3.80000 -2.48000 -0.15000
v -1.80000 -2.48000 -0.15000
v -3.80000 -2.41569 -0.39000
v -1.80000 -2.41569 -0.39000
v -3.80000 -2.24000 -0.56569
v -1.80000 -2.24000 -0.56569
v -3.80000 -2.00000 -0.63000
v -1.80000 -2.00000 -0.63000
v -3.80000 -1.76000 -0.56569
v -1.80000 -1.76000 -0.56569
v -3.80000 -1.58431 -0.39000
v -1.80000 -1.58431 -0.39000
v -3.95000 -1.76000 -0.15000
v -3.65000 -1.76000 -0.15000
v -3.95000 -1.79215 -0.03000
v -3.65000 -1.79215 -0.03000
v -3.95000 -1.88000 0.05785
v -3.65000 -1.88000 0.05785
v -3.95000 -2.00000 0.09000
v -3.65000 -2.00000 0.09000
v -3.95000 -2.12000 0.05785
v -3.65000 -2.12000 0.05785
v -3.95000 -2.20785 -0.03000
v -3.65000 -2.20785 -0.03000
v -3.95000 -2.24000 -0.15000
v -3.65000 -2.24000 -0.15000
v -3.95000 -2.20785 -0.27000
v -3.65000 -2.20785 -0.27000
v -3.95000 -2.12000 -0.35785
v -3.65000 -2.12000 -0.35785
v -3.95000 -2.00000 -0.39000
v -3.65000 -2.00000 -0.39000
v -3.95000 -1.88000 -0.35785
v -3.65000 -1.88000 -0.35785
v -3.95000 -1.79215 -0.27000
v -3.65000 -1.79215 -0.27000
v -3.80000 -0.52000 -0.15000
v -1.80000 -0.52000 -0.15000
v -3.80000 -0.58431 0.09000
v -1.80000 -0.58431 0.09000
v -3.80000 -0.76000 0.26569
v -1.80000 -0.76000 0.26569
v -3.80000 -1.00000 0.33000
v -1.80000 -1.00000 0.33000
v -3.80000 -1.24000 0.26569
v -1.80000 -1.24000 0.26569
v -3.80000 -1.41569 0.09000
v -1.80000 -1.41569 0.09000
v -3.80000 -1.48000 -0.15000
v -1.80000 -1.48000 -0.15000
v -3.80000 -1.41569 -0.39000
v -1.80000 -1.41569 -0.39000
v -3.80000 -1.24000 -0.56569
v -1.80000 -1.24000 -0.56569
v -3.80000 -1.00000 -0.63000
v -1.80000 -1.00000 -0.63000
v -3.80000 -0.76000 -0.56569
v -1.80000 -0.76000 -0.56569
v -3.80000 -0.58431 -0.39000
v -1.80000 -0.58431 -0.39000
v -3.95000 -0.76000 -0.15000
v -3.65000 -0.76000 -0.15000
v -3.95000 -0.79215 -0.03000
v -3.65000 -0.79215 -0.03000
v -3.95000 -0.88000 0.05785
v -3.65000 -0.88000 0.05785
v -3.95000 -1.00000 0.09000
v -3.65000 -1.00000 0.09000
v -3.95000 -1.12000 0.05785
v -3.65000 -1.12000 0.05785
v -3.95000 -1.20785 -0.03000
v -3.65000 -1.20785 -0.03000
v -3.95000 -1.24000 -0.15000
v -3.65000 -1.24000 -0.15000
v -3.95000 -1.20785 -0.27000
v -3.65000 -1.20785 -0.27000
v -3.95000 -1.12000 -0.35785
v -3.65000 -1.12000 -0.35785
v -3.95000 -1.00000 -0.39000
v -3.65000 -1.00000 -0.39000
v -3.95000 -0.88000 -0.35785
v -3.65000 -0.88000 -0.35785
v -3.95000 -0.79215 -0.27000
v -3.65000 -0.79215 -0.27000
v -3.80000 1.48000 -0.15000
v -1.80000 1.48000 -0.15000
v -3.80000 1.41569 0.09000
v -1.80000 1.41569 0.09000
v -3.80000 1.24000 0.26569
v -1.80000 1.24000 0.26569
v -3.80000 1.00000 0.33000
v -1.80000 1.00000 0.33000
v -3.80000 0.76000 0.26569
v -1.80000 0.76000 0.26569
v -3.80000 0.58431 0.09000
v -1.80000 0.58431 0.09000
v -3.80000 0.52000 -0.15000
v -1.80000 0.52000 -0.15000
v -3.80000 0.58431 -0.39000
v -1.80000 0.58431 -0.39000
v -3.80000 0.76000 -0.56569
v -1.80000 0.76000 -0.56569
v -3.80000 1.00000 -0.63000
v -1.80000 1.00000 -0.63000
v -3.80000 1.24000 -0.56569
v -1.80000 1.24000 -0.56569
v -3.80000 1.41569 -0.39000
v -1.80000 1.41569 -0.39000
v -3.95000 1.24000 -0.15000
v -3.65000 1.24000 -0.15000
v -3.95000 1.20785 -0.03000
v -3.65000 1.20785 -0.03000
v -3.95000 1.12000 0.05785
v -3.65000 1.12000 0.05785
v -3.95000 1.00000 0.09000
v -3.65000 1.00000 0.09000
v -3.95000 0.88000 0.05785
v -3.65000 0.88000 0.05785
v -3.95000 0.79215 -0.03000
v -3.65000 0.79215 -0.03000
v -3.95000 0.76000 -0.15000
v -3.65000 0.76000 -0.15000
v -3.95000 0.79215 -0.27000
v -3.65000 0.79215 -0.27000
v -3.95000 0.88000 -0.35785
v -3.65000 0.88000 -0.35785
v -3.95000 1.00000 -0.39000
v -3.65000 1.00000 -0.39000
v -3.95000 1.12000 -0.35785
v -3.65000 1.12000 -0.35785
v -3.95000 1.20785 -0.27000
v -3.65000 1.20785 -0.27000
v -3.80000 2.48000 -0.15000
v -1.80000 2.48000 -0.15000
v -3.80000 2.41569 0.09000
v -1.80000 2.41569 0.09000
v -3.80000 2.24000 0.26569
v -1.80000 2.24000 0.26569
v -3.80000 2.00000 0.33000
v -1.80000 2.00000 0.33000
v -3.80000 1.76000 0.26569
v -1.80000 1.76000 0.26569
v -3.80000 1.58431 0.09000
v -1.80000 1.58431 0.09000
v -3.80000 1.52000 -0.15000
v -1.80000 1.52000 -0.15000
v -3.80000 1.58431 -0.39000
v -1.80000 1.58431 -0.39000
v -3.80000 1.76000 -0.56569
v -1.80000 1.76000 -0.56569
v -3.80000 2.00000 -0.63000
v -1.80000 2.00000 -0.63000
v -3.80000 2.24000 -0.56569
v -1.80000 2.24000 -0.56569
v -3.80000 2.41569 -0.39000
v -1.80000 2.41569 -0.39000
v -3.95000 2.24000 -0.15000
v -3.65000 2.24000 -0.15000
v -3.95000 2.20785 -0.03000
v -3.65000 2.20785 -0.03000
v -3.95000 2.12000 0.05785
v -3.65000 2.12000 0.05785
v -3.95000 2.00000 0.09000
v -3.65000 2.00000 0.09000
v -3.95000 1.88000 0.05785
v -3.65000 1.88000 0.05785
v -3.95000 1.79215 -0.03000
v -3.65000 1.79215 -0.03000
v -3.95000 1.76000 -0.15000
v -3.65000 1.76000 -0.15000
v -3.95000 1.79215 -0.27000
v -3.65000 1.79215 -0.27000
v -3.95000 1.88000 -0.35785
v -3.65000 1.88000 -0.35785
v -3.95000 2.00000 -0.39000
v -3.65000 2.00000 -0.39000
v -3.95000 2.12000 -0.35785
v -3.65000 2.12000 -0.35785
v -3.95000 2.20785 -0.27000
v -3.65000 2.20785 -0.27000
v 1.80000 0.90000 1.52500
v 0.20000 0.90000 1.52500
v 0.20000 -0.90000 1.52500
v 1.80000 -0.90000 1.52500
v 1.80000 0.90000 1.17500
v 0.20000 0.90000 1.17500
v 0.20000 -0.90000 1.17500
v 1.80000 -0.90000 1.17500
v 1.75000 0.80000 0.20000
v 2.25000 0.80000 0.20000
v 1.75000 0.69282 0.60000
v 2.25000 0.69282 0.60000
v 1.75000 0.40000 0.89282
v 2.25000 0.40000 0.89282
v 1.75000 0.00000 1.00000
v 2.25000 0.00000 1.00000
v 1.75000 -0.40000 0.89282
v 2.25000 -0.40000 0.89282
v 1.75000 -0.69282 0.60000
v 2.25000 -0.69282 0.60000
v 1.75000 -0.80000 0.20000
v 2.25000 -0.80000 0.20000
v 1.75000 -0.69282 -0.20000
v 2.25000 -0.69282 -0.20000
v 1.75000 -0.40000 -0.49282
v 2.25000 -0.40000 -0.49282
v 1.75000 -0.00000 -0.60000
v 2.25000 -0.00000 -0.60000
v 1.75000 0.40000 -0.49282
v 2.25000 0.40000 -0.49282
v 1.75000 0.69282 -0.20000
v 2.25000 0.69282 -0.20000
usemtl armor
f 1 2 3 4
usemtl armor
f 5 8 7 6
usemtl armor
f 1 5 6 2
usemtl armor
f 2 6 7 3
usemtl armor
f 3 7 8 4
usemtl armor
f 5 1 4 8
usemtl carbon
f 9 10 11
usemtl carbon
f 9 11 13
usemtl carbon
f 9 13 12
usemtl carbon
f 9 12 10
usemtl carbon
f 10 14 15 11
usemtl carbon
f 12 13 17 16
usemtl carbon
f 10 12 16 14
usemtl carbon
f 11 15 17 13
usemtl carbon
f 14 16 17 15
usemtl dark
f 18 20 21 19
usemtl dark
f 20 22 23 21
usemtl dark
f 22 24 25 23
usemtl dark
f 24 26 27 25
usemtl dark
f 26 28 29 27
usemtl dark
f 28 30 31 29
usemtl dark
f 30 32 33 31
usemtl dark
f 32 34 35 33
usemtl dark
f 34 36 37 35
usemtl dark
f 36 38 39 37
usemtl dark
f 38 40 41 39
usemtl dark
f 40 18 19 41
usemtl dark
f 40 38 36 34 32 30 28 26 24 22 20 18
usemtl dark
f 19 21 23 25 27 29 31 33 35 37 39 41
usemtl red
f 42 44 45 43
usemtl red
f 44 46 47 45
usemtl red
f 46 48 49 47
usemtl red
f 48 50 51 49
usemtl red
f 50 52 53 51
usemtl red
f 52 54 55 53
usemtl red
f 54 56 57 55
usemtl red
f 56 58 59 57
usemtl red
f 58 60 61 59
usemtl red
f 60 62 63 61
usemtl red
f 62 64 65 63
usemtl red
f 64 42 43 65
usemtl red
f 64 62 60 58 56 54 52 50 48 46 44 42
usemtl red
f 43 45 47 49 51 53 55 57 59 61 63 65
usemtl dark
f 66 68 69 67
usemtl dark
f 68 70 71 69
usemtl dark
f 70 72 73 71
usemtl dark
f 72 74 75 73
usemtl dark
f 74 76 77 75
usemtl dark
f 76 78 79 77
usemtl dark
f 78 80 81 79
usemtl dark
f 80 82 83 81
usemtl dark
f 82 84 85 83
usemtl dark
f 84 86 87 85
usemtl dark
f 86 88 89 87
usemtl dark
f 88 66 67 89
usemtl dark
f 88 86 84 82 80 78 76 74 72 70 68 66
usemtl dark
f 67 69 71 73 75 77 79 81 83 85 87 89
usemtl red
f 90 92 93 91
usemtl red
f 92 94 95 93
usemtl red
f 94 96 97 95
usemtl red
f 96 98 99 97
usemtl red
f 98 100 101 99
usemtl red
f 100 102 103 101
usemtl red
f 102 104 105 103
usemtl red
f 104 106 107 105
usemtl red
f 106 108 109 107
usemtl red
f 108 110 111 109
usemtl red
f 110 112 113 111
usemtl red
f 112 90 91 113
usemtl red
f 112 110 108 106 104 102 100 98 96 94 92 90
usemtl red
f 91 93 95 97 99 101 103 105 107 109 111 113
usemtl dark
f 114 116 117 115
usemtl dark
f 116 118 119 117
usemtl dark
f 118 120 121 119
usemtl dark
f 120 122 123 121
usemtl dark
f 122 124 125 123
usemtl dark
f 124 126 127 125
usemtl dark
f 126 128 129 127
usemtl dark
f 128 130 131 129
usemtl dark
f 130 132 133 131
usemtl dark
f 132 134 135 133
usemtl dark
f 134 136 137 135
usemtl dark
f 136 114 115 137
usemtl dark
f 136 134 132 130 128 126 124 122 120 118 116 114
usemtl dark
f 115 117 119 121 123 125 127 129 131 133 135 137
usemtl red
f 138 140 141 139
usemtl red
f 140 142 143 141
usemtl red
f 142 144 145 143
usemtl red
f 144 146 147 145
usemtl red
f 146 148 149 147
usemtl red
f 148 150 151 149
usemtl red
f 150 152 153 151
usemtl red
f 152 154 155 153
usemtl red
f 154 156 157 155
usemtl red
f 156 158 159 157
usemtl red
f 158 160 161 159
usemtl red
f 160 138 139 161
usemtl red
f 160 158 156 154 152 150 148 146 144 142 140 138
usemtl red
f 139 141 143 145 147 149 151 153 155 157 159 161
usemtl dark
f 162 164 165 163
usemtl dark
f 164 166 167 165
usemtl dark
f 166 168 169 167
usemtl dark
f 168 170 171 169
usemtl dark
f 170 172 173 171
usemtl dark
f 172 174 175 173
usemtl dark
f 174 176 177 175
usemtl dark
f 176 178 179 177
usemtl dark
f 178 180 181 179
usemtl dark
f 180 182 183 181
usemtl dark
f 182 184 185 183
usemtl dark
f 184 162 163 185
usemtl dark
f 184 182 180 178 176 174 172 170 168 166 164 162
usemtl dark
f 163 165 167 169 171 173 175 177 179 181 183 185
usemtl red
f 186 188 189 187
usemtl red
f 188 190 191 189
usemtl red
f 190 192 193 191
usemtl red
f 192 194 195 193
usemtl red
f 194 196 197 195
usemtl red
f 196 198 199 197
usemtl red
f 198 200 201 199
usemtl red
f 200 202 203 201
usemtl red
f 202 204 205 203
usemtl red
f 204 206 207 205
usemtl red
f 206 208 209 207
usemtl red
f 208 186 187 209
usemtl red
f 208 206 204 202 200 198 196 194 192 190 188 186
usemtl red
f 187 189 191 193 195 197 199 201 203 205 207 209
usemtl red
f 210 211 212 213
usemtl red
f 214 217 216 215
usemtl red
f 210 214 215 211
usemtl red
f 211 215 216 212
usemtl red
f 212 216 217 213
usemtl red
f 214 210 213 217
usemtl orange
f 218 220 221 219
usemtl orange
f 220 222 223 221
usemtl orange
f 222 224 225 223
usemtl orange
f 224 226 227 225
usemtl orange
f 226 228 229 227
usemtl orange
f 228 230 231 229
usemtl orange
f 230 232 233 231
usemtl orange
f 232 234 235 233
usemtl orange
f 234 236 237 235
usemtl orange
f 236 238 239 237
usemtl orange
f 238 240 241 239
usemtl orange
f 240 218 219 241
usemtl orange
f 240 238 236 234 232 230 228 226 224 222 220 218
usemtl orange
f 219 221 223 225 227 229 231 233 235 237 239 241
