mtllib controller.mtl
o controller
v 2.80000 0.00000 0.00000
v -2.80000 -1.80000 -0.72500
v -2.80000 1.80000 -0.72500
v -2.80000 -1.80000 0.72500
v -2.80000 1.80000 0.72500
v 0.70000 -1.44000 -0.47125
v 0.70000 1.44000 -0.47125
v 0.70000 -1.44000 0.47125
v 0.70000 1.44000 0.47125
v -0.20000 -1.00000 -0.18000
v -2.40000 -2.60000 -0.18000
v -1.70000 -0.40000 -0.18000
v -0.20000 -1.00000 0.18000
v -2.40000 -2.60000 0.18000
v -1.70000 -0.40000 0.18000
v -0.20000 1.00000 -0.18000
v -2.40000 2.60000 -0.18000
v -1.70000 0.40000 -0.18000
v -0.20000 1.00000 0.18000
v -2.40000 2.60000 0.18000
v -1.70000 0.40000 0.18000
v 1.15000 0.60000 0.60000
v 0.05000 0.60000 0.60000
v 0.05000 -0.60000 0.60000
v 1.15000 -0.60000 0.60000
v 1.15000 0.60000 0.30000
v 0.05000 0.60000 0.30000
v 0.05000 -0.60000 0.30000
v 1.15000 -0.60000 0.30000
v -2.10000 0.42000 0.00000
v -1.70000 0.42000 0.00000
v -2.10000 0.36373 0.21000
v -1.70000 0.36373 0.21000
v -2.10000 0.21000 0.36373
v -1.70000 0.21000 0.36373
v -2.10000 0.00000 0.42000
v -1.70000 0.00000 0.42000
v -2.10000 -0.21000 0.36373
v -1.70000 -0.21000 0.36373
v -2.10000 -0.36373 0.21000
v -1.70000 -0.36373 0.21000
v -2.10000 -0.42000 0.00000
v -1.70000 -0.42000 0.00000
v -2.10000 -0.36373 -0.21000
v -1.70000 -0.36373 -0.21000
v -2.10000 -0.21000 -0.36373
v -1.70000 -0.21000 -0.36373
v -2.10000 -0.00000 -0.42000
v -1.70000 -0.00000 -0.42000
v -2.10000 0.21000 -0.36373
v -1.70000 0.21000 -0.36373
v -2.10000 0.36373 -0.21000
v -1.70000 0.36373 -0.21000
usemtl armor
f 1 2 3
usemtl armor
f 1 3 5
usemtl armor
f 1 5 4
usemtl armor
f 1 4 2
usemtl armor
f 2 6 7 3
usemtl armor
f 4 5 9 8
usemtl armor
f 2 4 8 6
usemtl armor
f 3 7 9 5
usemtl armor
f 6 8 9 7
usemtl carbon
f 13 14 15
usemtl carbon
f 12 11 10
usemtl carbon
f 10 11 14 13
usemtl carbon
f 11 12 15 14
usemtl carbon
f 12 10 13 15
usemtl carbon
f 19 20 21
usemtl carbon
f 18 17 16
usemtl carbon
f 16 17 20 19
usemtl carbon
f 17 18 21 20
usemtl carbon
f 18 16 19 21
usemtl glass
f 22 23 24 25
usemtl glass
f 26 29 28 27
usemtl glass
f 22 26 27 23
usemtl glass
f 23 27 28 24
usemtl glass
f 24 28 29 25
usemtl glass
f 26 22 25 29
usemtl cyan
f 30 32 33 31
usemtl cyan
f 32 34 35 33
usemtl cyan
f 34 36 37 35
usemtl cyan
f 36 38 39 37
usemtl cyan
f 38 40 41 39
usemtl cyan
f 40 42 43 41
usemtl cyan
f 42 44 45 43
usemtl cyan
f 44 46 47 45
usemtl cyan
f 46 48 49 47
usemtl cyan
f 48 50 51 49
usemtl cyan
f 50 52 53 51
usemtl cyan
f 52 30 31 53
usemtl cyan
f 52 50 48 46 44 42 40 38 36 34 32 30
usemtl cyan
f 31 33 35 37 39 41 43 45 47 49 51 53
