mtllib elite.mtl
o elite
v 2.50000 0.00000 0.00000
v -2.50000 -1.40000 -0.75000
v -2.50000 1.40000 -0.75000
v -2.50000 -1.40000 0.75000
v -2.50000 1.40000 0.75000
v 0.62500 -1.12000 -0.48750
v 0.62500 1.12000 -0.48750
v 0.62500 -1.12000 0.48750
v 0.62500 1.12000 0.48750
v 0.00000 -0.60000 -0.15000
v -2.80000 -2.20000 -0.15000
v -2.00000 -0.20000 -0.15000
v 0.00000 -0.60000 0.15000
v -2.80000 -2.20000 0.15000
v -2.00000 -0.20000 0.15000
v 0.00000 0.60000 -0.15000
v -2.80000 2.20000 -0.15000
v -2.00000 0.20000 -0.15000
v 0.00000 0.60000 0.15000
v -2.80000 2.20000 0.15000
v -2.00000 0.20000 0.15000
v 0.12500 0.50000 0.20000
v 0.47500 0.50000 0.20000
v 0.12500 0.43301 0.45000
v 0.47500 0.43301 0.45000
v 0.12500 0.25000 0.63301
v 0.47500 0.25000 0.63301
v 0.12500 0.00000 0.70000
v 0.47500 0.00000 0.70000
v 0.12500 -0.25000 0.63301
v 0.47500 -0.25000 0.63301
v 0.12500 -0.43301 0.45000
v 0.47500 -0.43301 0.45000
v 0.12500 -0.50000 0.20000
v 0.47500 -0.50000 0.20000
v 0.12500 -0.43301 -0.05000
v 0.47500 -0.43301 -0.05000
v 0.12500 -0.25000 -0.23301
v 0.47500 -0.25000 -0.23301
v 0.12500 -0.00000 -0.30000
v 0.47500 -0.00000 -0.30000
v 0.12500 0.25000 -0.23301
v 0.47500 0.25000 -0.23301
v 0.12500 0.43301 -0.05000
v 0.47500 0.43301 -0.05000
usemtl armor
f 1 2 3
usemtl armor
f 1 3 5
usemtl armor
f 1 5 4
usemtl armor
f 1 4 2
usemtl armor
f 2 6 7 3
usemtl armor
f 4 5 9 8
usemtl armor
f 2 4 8 6
usemtl armor
f 3 7 9 5
usemtl armor
f 6 8 9 7
usemtl carbon
f 13 14 15
usemtl carbon
f 12 11 10
usemtl carbon
f 10 11 14 13
usemtl carbon
f 11 12 15 14
usemtl carbon
f 12 10 13 15
usemtl carbon
f 19 20 21
usemtl carbon
f 18 17 16
usemtl carbon
f 16 17 20 19
usemtl carbon
f 17 18 21 20
usemtl carbon
f 18 16 19 21
usemtl magenta
f 22 24 25 23
usemtl magenta
f 24 26 27 25
usemtl magenta
f 26 28 29 27
usemtl magenta
f 28 30 31 29
usemtl magenta
f 30 32 33 31
usemtl magenta
f 32 34 35 33
usemtl magenta
f 34 36 37 35
usemtl magenta
f 36 38 39 37
usemtl magenta
f 38 40 41 39
usemtl magenta
f 40 42 43 41
usemtl magenta
f 42 44 45 43
usemtl magenta
f 44 22 23 45
usemtl magenta
f 44 42 40 38 36 34 32 30 28 26 24 22
usemtl magenta
f 23 25 27 29 31 33 35 37 39 41 43 45
