mtllib hunter.mtl
o hunter
v 2.25000 0.00000 0.00000
v -2.25000 -1.15000 -0.55000
v -2.25000 1.15000 -0.55000
v -2.25000 -1.15000 0.55000
v -2.25000 1.15000 0.55000
v 0.56250 -0.92000 -0.35750
v 0.56250 0.92000 -0.35750
v 0.56250 -0.92000 0.35750
v 0.56250 0.92000 0.35750
v 0.20000 -0.50000 -0.15000
v -2.00000 -2.00000 -0.15000
v -2.30000 -0.70000 -0.15000
v 0.20000 -0.50000 0.15000
v -2.00000 -2.00000 0.15000
v -2.30000 -0.70000 0.15000
v 0.20000 0.50000 -0.15000
v -2.00000 2.00000 -0.15000
v -2.30000 0.70000 -0.15000
v 0.20000 0.50000 0.15000
v -2.00000 2.00000 0.15000
v -2.30000 0.70000 0.15000
v -0.62500 0.35000 0.10000
v -0.37500 0.35000 0.10000
v -0.62500 0.30311 0.27500
v -0.37500 0.30311 0.27500
v -0.62500 0.17500 0.40311
v -0.37500 0.17500 0.40311
v -0.62500 0.00000 0.45000
v -0.37500 0.00000 0.45000
v -0.62500 -0.17500 0.40311
v -0.37500 -0.17500 0.40311
v -0.62500 -0.30311 0.27500
v -0.37500 -0.30311 0.27500
v -0.62500 -0.35000 0.10000
v -0.37500 -0.35000 0.10000
v -0.62500 -0.30311 -0.07500
v -0.37500 -0.30311 -0.07500
v -0.62500 -0.17500 -0.20311
v -0.37500 -0.17500 -0.20311
v -0.62500 -0.00000 -0.25000
v -0.37500 -0.00000 -0.25000
v -0.62500 0.17500 -0.20311
v -0.37500 0.17500 -0.20311
v -0.62500 0.30311 -0.07500
v -0.37500 0.30311 -0.07500
usemtl dark
f 1 2 3
usemtl dark
f 1 3 5
usemtl dark
f 1 5 4
usemtl dark
f 1 4 2
usemtl dark
f 2 6 7 3
usemtl dark
f 4 5 9 8
usemtl dark
f 2 4 8 6
usemtl dark
f 3 7 9 5
usemtl dark
f 6 8 9 7
usemtl armor
f 13 14 15
usemtl armor
f 12 11 10
usemtl armor
f 10 11 14 13
usemtl armor
f 11 12 15 14
usemtl armor
f 12 10 13 15
usemtl armor
f 19 20 21
usemtl armor
f 18 17 16
usemtl armor
f 16 17 20 19
usemtl armor
f 17 18 21 20
usemtl armor
f 18 16 19 21
usemtl red
f 22 24 25 23
usemtl red
f 24 26 27 25
usemtl red
f 26 28 29 27
usemtl red
f 28 30 31 29
usemtl red
f 30 32 33 31
usemtl red
f 32 34 35 33
usemtl red
f 34 36 37 35
usemtl red
f 36 38 39 37
usemtl red
f 38 40 41 39
usemtl red
f 40 42 43 41
usemtl red
f 42 44 45 43
usemtl red
f 44 22 23 45
usemtl red
f 44 42 40 38 36 34 32 30 28 26 24 22
usemtl red
f 23 25 27 29 31 33 35 37 39 41 43 45
