mtllib orbiter.mtl
o orbiter
v -0.40000 0.90000 0.00000
v 0.40000 0.90000 0.00000
v -0.40000 0.77942 0.45000
v 0.40000 0.77942 0.45000
v -0.40000 0.45000 0.77942
v 0.40000 0.45000 0.77942
v -0.40000 0.00000 0.90000
v 0.40000 0.00000 0.90000
v -0.40000 -0.45000 0.77942
v 0.40000 -0.45000 0.77942
v -0.40000 -0.77942 0.45000
v 0.40000 -0.77942 0.45000
v -0.40000 -0.90000 0.00000
v 0.40000 -0.90000 0.00000
v -0.40000 -0.77942 -0.45000
v 0.40000 -0.77942 -0.45000
v -0.40000 -0.45000 -0.77942
v 0.40000 -0.45000 -0.77942
v -0.40000 -0.00000 -0.90000
v 0.40000 -0.00000 -0.90000
v -0.40000 0.45000 -0.77942
v 0.40000 0.45000 -0.77942
v -0.40000 0.77942 -0.45000
v 0.40000 0.77942 -0.45000
v -0.70000 0.18000 1.50000
v 0.70000 0.18000 1.50000
v -0.70000 0.15588 1.59000
v 0.70000 0.15588 1.59000
v -0.70000 0.09000 1.65588
v 0.70000 0.09000 1.65588
v -0.70000 0.00000 1.68000
v 0.70000 0.00000 1.68000
v -0.70000 -0.09000 1.65588
v 0.70000 -0.09000 1.65588
v -0.70000 -0.15588 1.59000
v 0.70000 -0.15588 1.59000
v -0.70000 -0.18000 1.50000
v 0.70000 -0.18000 1.50000
v -0.70000 -0.15588 1.41000
v 0.70000 -0.15588 1.41000
v -0.70000 -0.09000 1.34412
v 0.70000 -0.09000 1.34412
v -0.70000 -0.00000 1.32000
v 0.70000 -0.00000 1.32000
v -0.70000 0.09000 1.34412
v 0.70000 0.09000 1.34412
v -0.70000 0.15588 1.41000
v 0.70000 0.15588 1.41000
v -0.70000 1.68000 0.00000
v 0.70000 1.68000 0.00000
v -0.70000 1.65588 0.09000
v 0.70000 1.65588 0.09000
v -0.70000 1.59000 0.15588
v 0.70000 1.59000 0.15588
v -0.70000 1.50000 0.18000
v 0.70000 1.50000 0.18000
v -0.70000 1.41000 0.15588
v 0.70000 1.41000 0.15588
v -0.70000 1.34412 0.09000
v 0.70000 1.34412 0.09000
v -0.70000 1.32000 0.00000
v 0.70000 1.32000 0.00000
v -0.70000 1.34412 -0.09000
v 0.70000 1.34412 -0.09000
v -0.70000 1.41000 -0.15588
v 0.70000 1.41000 -0.15588
v -0.70000 1.50000 -0.18000
v 0.70000 1.50000 -0.18000
v -0.70000 1.59000 -0.15588
v 0.70000 1.59000 -0.15588
v -0.70000 1.65588 -0.09000
v 0.70000 1.65588 -0.09000
v -0.70000 0.18000 -1.50000
v 0.70000 0.18000 -1.50000
v -0.70000 0.15588 -1.41000
v 0.70000 0.15588 -1.41000
v -0.70000 0.09000 -1.34412
v 0.70000 0.09000 -1.34412
v -0.70000 0.00000 -1.32000
v 0.70000 0.00000 -1.32000
v -0.70000 -0.09000 -1.34412
v 0.70000 -0.09000 -1.34412
v -0.70000 -0.15588 -1.41000
v 0.70000 -0.15588 -1.41000
v -0.70000 -0.18000 -1.50000
v 0.70000 -0.18000 -1.50000
v -0.70000 -0.15588 -1.59000
v 0.70000 -0.15588 -1.59000
v -0.70000 -0.09000 -1.65588
v 0.70000 -0.09000 -1.65588
v -0.70000 0.00000 -1.68000
v 0.70000 0.00000 -1.68000
v -0.70000 0.09000 -1.65588
v 0.70000 0.09000 -1.65588
v -0.70000 0.15588 -1.59000
v 0.70000 0.15588 -1.59000
v -0.70000 -1.32000 -0.00000
v 0.70000 -1.32000 -0.00000
v -0.70000 -1.34412 0.09000
v 0.70000 -1.34412 0.09000
v -0.70000 -1.41000 0.15588
v 0.70000 -1.41000 0.15588
v -0.70000 -1.50000 0.18000
v 0.70000 -1.50000 0.18000
v -0.70000 -1.59000 0.15588
v 0.70000 -1.59000 0.15588
v -0.70000 -1.65588 0.09000
v 0.70000 -1.65588 0.09000
v -0.70000 -1.68000 -0.00000
v 0.70000 -1.68000 -0.00000
v -0.70000 -1.65588 -0.09000
v 0.70000 -1.65588 -0.09000
v -0.70000 -1.59000 -0.15588
v 0.70000 -1.59000 -0.15588
v -0.70000 -1.50000 -0.18000
v 0.70000 -1.50000 -0.18000
v -0.70000 -1.41000 -0.15588
v 0.70000 -1.41000 -0.15588
v -0.70000 -1.34412 -0.09000
v 0.70000 -1.34412 -0.09000
v 0.25000 0.35000 0.00000
v 0.55000 0.35000 0.00000
v 0.25000 0.30311 0.17500
v 0.55000 0.30311 0.17500
v 0.25000 0.17500 0.30311
v 0.55000 0.17500 0.30311
v 0.25000 0.00000 0.35000
v 0.55000 0.00000 0.35000
v 0.25000 -0.17500 0.30311
v 0.55000 -0.17500 0.30311
v 0.25000 -0.30311 0.17500
v 0.55000 -0.30311 0.17500
v 0.25000 -0.35000 0.00000
v 0.55000 -0.35000 0.00000
v 0.25000 -0.30311 -0.17500
v 0.55000 -0.30311 -0.17500
v 0.25000 -0.17500 -0.30311
v 0.55000 -0.17500 -0.30311
v 0.25000 -0.00000 -0.35000
v 0.55000 -0.00000 -0.35000
v 0.25000 0.17500 -0.30311
v 0.55000 0.17500 -0.30311
v 0.25000 0.30311 -0.17500
v 0.55000 0.30311 -0.17500
usemtl dark
f 1 3 4 2
usemtl dark
f 3 5 6 4
usemtl dark
f 5 7 8 6
usemtl dark
f 7 9 10 8
usemtl dark
f 9 11 12 10
usemtl dark
f 11 13 14 12
usemtl dark
f 13 15 16 14
usemtl dark
f 15 17 18 16
usemtl dark
f 17 19 20 18
usemtl dark
f 19 21 22 20
usemtl dark
f 21 23 24 22
usemtl dark
f 23 1 2 24
usemtl dark
f 23 21 19 17 15 13 11 9 7 5 3 1
usemtl dark
f 2 4 6 8 10 12 14 16 18 20 22 24
usemtl carbon
f 25 27 28 26
usemtl carbon
f 27 29 30 28
usemtl carbon
f 29 31 32 30
usemtl carbon
f 31 33 34 32
usemtl carbon
f 33 35 36 34
usemtl carbon
f 35 37 38 36
usemtl carbon
f 37 39 40 38
usemtl carbon
f 39 41 42 40
usemtl carbon
f 41 43 44 42
usemtl carbon
f 43 45 46 44
usemtl carbon
f 45 47 48 46
usemtl carbon
f 47 25 26 48
usemtl carbon
f 47 45 43 41 39 37 35 33 31 29 27 25
usemtl carbon
f 26 28 30 32 34 36 38 40 42 44 46 48
usemtl carbon
f 49 51 52 50
usemtl carbon
f 51 53 54 52
usemtl carbon
f 53 55 56 54
usemtl carbon
f 55 57 58 56
usemtl carbon
f 57 59 60 58
usemtl carbon
f 59 61 62 60
usemtl carbon
f 61 63 64 62
usemtl carbon
f 63 65 66 64
usemtl carbon
f 65 67 68 66
usemtl carbon
f 67 69 70 68
usemtl carbon
f 69 71 72 70
usemtl carbon
f 71 49 50 72
usemtl carbon
f 71 69 67 65 63 61 59 57 55 53 51 49
usemtl carbon
f 50 52 54 56 58 60 62 64 66 68 70 72
usemtl carbon
f 73 75 76 74
usemtl carbon
f 75 77 78 76
usemtl carbon
f 77 79 80 78
usemtl carbon
f 79 81 82 80
usemtl carbon
f 81 83 84 82
usemtl carbon
f 83 85 86 84
usemtl carbon
f 85 87 88 86
usemtl carbon
f 87 89 90 88
usemtl carbon
f 89 91 92 90
usemtl carbon
f 91 93 94 92
usemtl carbon
f 93 95 96 94
usemtl carbon
f 95 73 74 96
usemtl carbon
f 95 93 91 89 87 85 83 81 79 77 75 73
usemtl carbon
f 74 76 78 80 82 84 86 88 90 92 94 96
usemtl carbon
f 97 99 100 98
usemtl carbon
f 99 101 102 100
usemtl carbon
f 101 103 104 102
usemtl carbon
f 103 105 106 104
usemtl carbon
f 105 107 108 106
usemtl carbon
f 107 109 110 108
usemtl carbon
f 109 111 112 110
usemtl carbon
f 111 113 114 112
usemtl carbon
f 113 115 116 114
usemtl carbon
f 115 117 118 116
usemtl carbon
f 117 119 120 118
usemtl carbon
f 119 97 98 120
usemtl carbon
f 119 117 115 113 111 109 107 105 103 101 99 97
usemtl carbon
f 98 100 102 104 106 108 110 112 114 116 118 120
usemtl cyan
f 121 123 124 122
usemtl cyan
f 123 125 126 124
usemtl cyan
f 125 127 128 126
usemtl cyan
f 127 129 130 128
usemtl cyan
f 129 131 132 130
usemtl cyan
f 131 133 134 132
usemtl cyan
f 133 135 136 134
usemtl cyan
f 135 137 138 136
usemtl cyan
f 137 139 140 138
usemtl cyan
f 139 141 142 140
usemtl cyan
f 141 143 144 142
usemtl cyan
f 143 121 122 144
usemtl cyan
f 143 141 139 137 135 133 131 129 127 125 123 121
usemtl cyan
f 122 124 126 128 130 132 134 136 138 140 142 144
