mtllib scout.mtl
o scout
v 2.10000 0.00000 0.00000
v -2.10000 -0.90000 -0.40000
v -2.10000 0.90000 -0.40000
v -2.10000 -0.90000 0.40000
v -2.10000 0.90000 0.40000
v 0.52500 -0.72000 -0.26000
v 0.52500 0.72000 -0.26000
v 0.52500 -0.72000 0.26000
v 0.52500 0.72000 0.26000
v -0.30000 -0.40000 -0.10000
v -2.00000 -1.50000 -0.10000
v -2.20000 -0.40000 -0.10000
v -0.30000 -0.40000 0.10000
v -2.00000 -1.50000 0.10000
v -2.20000 -0.40000 0.10000
v -0.30000 0.40000 -0.10000
v -2.00000 1.50000 -0.10000
v -2.20000 0.40000 -0.10000
v -0.30000 0.40000 0.10000
v -2.00000 1.50000 0.10000
v -2.20000 0.40000 0.10000
v -1.72500 0.20000 0.00000
v -1.47500 0.20000 0.00000
v -1.72500 0.17321 0.10000
v -1.47500 0.17321 0.10000
v -1.72500 0.10000 0.17321
v -1.47500 0.10000 0.17321
v -1.72500 0.00000 0.20000
v -1.47500 0.00000 0.20000
v -1.72500 -0.10000 0.17321
v -1.47500 -0.10000 0.17321
v -1.72500 -0.17321 0.10000
v -1.47500 -0.17321 0.10000
v -1.72500 -0.20000 0.00000
v -1.47500 -0.20000 0.00000
v -1.72500 -0.17321 -0.10000
v -1.47500 -0.17321 -0.10000
v -1.72500 -0.10000 -0.17321
v -1.47500 -0.10000 -0.17321
v -1.72500 -0.00000 -0.20000
v -1.47500 -0.00000 -0.20000
v -1.72500 0.10000 -0.17321
v -1.47500 0.10000 -0.17321
v -1.72500 0.17321 -0.10000
v -1.47500 0.17321 -0.10000
usemtl dark
f 1 2 3
usemtl dark
f 1 3 5
usemtl dark
f 1 5 4
usemtl dark
f 1 4 2
usemtl dark
f 2 6 7 3
usemtl dark
f 4 5 9 8
usemtl dark
f 2 4 8 6
usemtl dark
f 3 7 9 5
usemtl dark
f 6 8 9 7
usemtl carbon
f 13 14 15
usemtl carbon
f 12 11 10
usemtl carbon
f 10 11 14 13
usemtl carbon
f 11 12 15 14
usemtl carbon
f 12 10 13 15
usemtl carbon
f 19 20 21
usemtl carbon
f 18 17 16
usemtl carbon
f 16 17 20 19
usemtl carbon
f 17 18 21 20
usemtl carbon
f 18 16 19 21
usemtl cyan
f 22 24 25 23
usemtl cyan
f 24 26 27 25
usemtl cyan
f 26 28 29 27
usemtl cyan
f 28 30 31 29
usemtl cyan
f 30 32 33 31
usemtl cyan
f 32 34 35 33
usemtl cyan
f 34 36 37 35
usemtl cyan
f 36 38 39 37
usemtl cyan
f 38 40 41 39
usemtl cyan
f 40 42 43 41
usemtl cyan
f 42 44 45 43
usemtl cyan
f 44 22 23 45
usemtl cyan
f 44 42 40 38 36 34 32 30 28 26 24 22
usemtl cyan
f 23 25 27 29 31 33 35 37 39 41 43 45
