mtllib striker.mtl
o striker
v 3.10000 0.00000 0.00000
v -3.10000 -1.25000 -0.57500
v -3.10000 1.25000 -0.57500
v -3.10000 -1.25000 0.57500
v -3.10000 1.25000 0.57500
v 0.77500 -1.00000 -0.37375
v 0.77500 1.00000 -0.37375
v 0.77500 -1.00000 0.37375
v 0.77500 1.00000 0.37375
v -0.10000 -0.50000 -0.14000
v -2.80000 -2.50000 -0.14000
v -3.00000 -1.00000 -0.14000
v -1.00000 -0.20000 -0.14000
v -0.10000 -0.50000 0.14000
v -2.80000 -2.50000 0.14000
v -3.00000 -1.00000 0.14000
v -1.00000 -0.20000 0.14000
v -0.10000 0.50000 -0.14000
v -2.80000 2.50000 -0.14000
v -3.00000 1.00000 -0.14000
v -1.00000 0.20000 -0.14000
v -0.10000 0.50000 0.14000
v -2.80000 2.50000 0.14000
v -3.00000 1.00000 0.14000
v -1.00000 0.20000 0.14000
v -2.90000 -0.60000 -0.05000
v -1.50000 -0.60000 -0.05000
v -2.90000 -0.64019 0.10000
v -1.50000 -0.64019 0.10000
v -2.90000 -0.75000 0.20981
v -1.50000 -0.75000 0.20981
v -2.90000 -0.90000 0.25000
v -1.50000 -0.90000 0.25000
v -2.90000 -1.05000 0.20981
v -1.50000 -1.05000 0.20981
v -2.90000 -1.15981 0.10000
v -1.50000 -1.15981 0.10000
v -2.90000 -1.20000 -0.05000
v -1.50000 -1.20000 -0.05000
v -2.90000 -1.15981 -0.20000
v -1.50000 -1.15981 -0.20000
v -2.90000 -1.05000 -0.30981
v -1.50000 -1.05000 -0.30981
v -2.90000 -0.90000 -0.35000
v -1.50000 -0.90000 -0.35000
v -2.90000 -0.75000 -0.30981
v -1.50000 -0.75000 -0.30981
v -2.90000 -0.64019 -0.20000
v -1.50000 -0.64019 -0.20000
v -3.00000 -0.74000 -0.05000
v -2.80000 -0.74000 -0.05000
v -3.00000 -0.76144 0.03000
v -2.80000 -0.76144 0.03000
v -3.00000 -0.82000 0.08856
v -2.80000 -0.82000 0.08856
v -3.00000 -0.90000 0.11000
v -2.80000 -0.90000 0.11000
v -3.00000 -0.98000 0.08856
v -2.80000 -0.98000 0.08856
v -3.00000 -1.03856 0.03000
v -2.80000 -1.03856 0.03000
v -3.00000 -1.06000 -0.05000
v -2.80000 -1.06000 -0.05000
v -3.00000 -1.03856 -0.13000
v -2.80000 -1.03856 -0.13000
v -3.00000 -0.98000 -0.18856
v -2.80000 -0.98000 -0.18856
v -3.00000 -0.90000 -0.21000
v -2.80000 -0.90000 -0.21000
v -3.00000 -0.82000 -0.18856
v -2.80000 -0.82000 -0.18856
v -3.00000 -0.76144 -0.13000
v -2.80000 -0.76144 -0.13000
v -2.90000 1.20000 -0.05000
v -1.50000 1.20000 -0.05000
v -2.90000 1.15981 0.10000
v -1.50000 1.15981 0.10000
v -2.90000 1.05000 0.20981
v -1.50000 1.05000 0.20981
v -2.90000 0.90000 0.25000
v -1.50000 0.90000 0.25000
v -2.90000 0.75000 0.20981
v -1.50000 0.75000 0.20981
v -2.90000 0.64019 0.10000
v -1.50000 0.64019 0.10000
v -2.90000 0.60000 -0.05000
v -1.50000 0.60000 -0.05000
v -2.90000 0.64019 -0.20000
v -1.50000 0.64019 -0.20000
v -2.90000 0.75000 -0.30981
v -1.50000 0.75000 -0.30981
v -2.90000 0.90000 -0.35000
v -1.50000 0.90000 -0.35000
v -2.90000 1.05000 -0.30981
v -1.50000 1.05000 -0.30981
v -2.90000 1.15981 -0.20000
v -1.50000 1.15981 -0.20000
v -3.00000 1.06000 -0.05000
v -2.80000 1.06000 -0.05000
v -3.00000 1.03856 0.03000
v -2.80000 1.03856 0.03000
v -3.00000 0.98000 0.08856
v -2.80000 0.98000 0.08856
v -3.00000 0.90000 0.11000
v -2.80000 0.90000 0.11000
v -3.00000 0.82000 0.08856
v -2.80000 0.82000 0.08856
v -3.00000 0.76144 0.03000
v -2.80000 0.76144 0.03000
v -3.00000 0.74000 -0.05000
v -2.80000 0.74000 -0.05000
v -3.00000 0.76144 -0.13000
v -2.80000 0.76144 -0.13000
v -3.00000 0.82000 -0.18856
v -2.80000 0.82000 -0.18856
v -3.00000 0.90000 -0.21000
v -2.80000 0.90000 -0.21000
v -3.00000 0.98000 -0.18856
v -2.80000 0.98000 -0.18856
v -3.00000 1.03856 -0.13000
v -2.80000 1.03856 -0.13000
v 1.30000 0.35000 0.55000
v 0.10000 0.35000 0.55000
v 0.10000 -0.35000 0.55000
v 1.30000 -0.35000 0.55000
v 1.30000 0.35000 0.35000
v 0.10000 0.35000 0.35000
v 0.10000 -0.35000 0.35000
v 1.30000 -0.35000 0.35000
usemtl armor
f 1 2 3
usemtl armor
f 1 3 5
usemtl armor
f 1 5 4
usemtl armor
f 1 4 2
usemtl armor
f 2 6 7 3
usemtl armor
f 4 5 9 8
usemtl armor
f 2 4 8 6
usemtl armor
f 3 7 9 5
usemtl armor
f 6 8 9 7
usemtl carbon
f 14 15 16 17
usemtl carbon
f 13 12 11 10
usemtl carbon
f 10 11 15 14
usemtl carbon
f 11 12 16 15
usemtl carbon
f 12 13 17 16
usemtl carbon
f 13 10 14 17
usemtl carbon
f 22 23 24 25
usemtl carbon
f 21 20 19 18
usemtl carbon
f 18 19 23 22
usemtl carbon
f 19 20 24 23
usemtl carbon
f 20 21 25 24
usemtl carbon
f 21 18 22 25
usemtl dark
f 26 28 29 27
usemtl dark
f 28 30 31 29
usemtl dark
f 30 32 33 31
usemtl dark
f 32 34 35 33
usemtl dark
f 34 36 37 35
usemtl dark
f 36 38 39 37
usemtl dark
f 38 40 41 39
usemtl dark
f 40 42 43 41
usemtl dark
f 42 44 45 43
usemtl dark
f 44 46 47 45
usemtl dark
f 46 48 49 47
usemtl dark
f 48 26 27 49
usemtl dark
f 48 46 44 42 40 38 36 34 32 30 28 26
usemtl dark
f 27 29 31 33 35 37 39 41 43 45 47 49
usemtl magenta
f 50 52 53 51
usemtl magenta
f 52 54 55 53
usemtl magenta
f 54 56 57 55
usemtl magenta
f 56 58 59 57
usemtl magenta
f 58 60 61 59
usemtl magenta
f 60 62 63 61
usemtl magenta
f 62 64 65 63
usemtl magenta
f 64 66 67 65
usemtl magenta
f 66 68 69 67
usemtl magenta
f 68 70 71 69
usemtl magenta
f 70 72 73 71
usemtl magenta
f 72 50 51 73
usemtl magenta
f 72 70 68 66 64 62 60 58 56 54 52 50
usemtl magenta
f 51 53 55 57 59 61 63 65 67 69 71 73
usemtl dark
f 74 76 77 75
usemtl dark
f 76 78 79 77
usemtl dark
f 78 80 81 79
usemtl dark
f 80 82 83 81
usemtl dark
f 82 84 85 83
usemtl dark
f 84 86 87 85
usemtl dark
f 86 88 89 87
usemtl dark
f 88 90 91 89
usemtl dark
f 90 92 93 91
usemtl dark
f 92 94 95 93
usemtl dark
f 94 96 97 95
usemtl dark
f 96 74 75 97
usemtl dark
f 96 94 92 90 88 86 84 82 80 78 76 74
usemtl dark
f 75 77 79 81 83 85 87 89 91 93 95 97
usemtl magenta
f 98 100 101 99
usemtl magenta
f 100 102 103 101
usemtl magenta
f 102 104 105 103
usemtl magenta
f 104 106 107 105
usemtl magenta
f 106 108 109 107
usemtl magenta
f 108 110 111 109
usemtl magenta
f 110 112 113 111
usemtl magenta
f 112 114 115 113
usemtl magenta
f 114 116 117 115
usemtl magenta
f 116 118 119 117
usemtl magenta
f 118 120 121 119
usemtl magenta
f 120 98 99 121
usemtl magenta
f 120 118 116 114 112 110 108 106 104 102 100 98
usemtl magenta
f 99 101 103 105 107 109 111 113 115 117 119 121
usemtl glass
f 122 123 124 125
usemtl glass
f 126 129 128 127
usemtl glass
f 122 126 127 123
usemtl glass
f 123 127 128 124
usemtl glass
f 124 128 129 125
usemtl glass
f 126 122 125 129
