mtllib tank.mtl
o tank
v 2.55000 1.80000 0.90000
v -2.95000 1.80000 0.90000
v -2.95000 -1.80000 0.90000
v 2.55000 -1.80000 0.90000
v 2.55000 1.80000 -0.90000
v -2.95000 1.80000 -0.90000
v -2.95000 -1.80000 -0.90000
v 2.55000 -1.80000 -0.90000
v 3.20000 0.00000 0.20000
v 1.20000 -1.50000 -0.50000
v 1.20000 1.50000 -0.50000
v 1.20000 -1.50000 0.90000
v 1.20000 1.50000 0.90000
v 2.45000 -1.20000 -0.25500
v 2.45000 1.20000 -0.25500
v 2.45000 -1.20000 0.65500
v 2.45000 1.20000 0.65500
v -2.75000 -0.75000 -0.10000
v -1.25000 -0.75000 -0.10000
v -2.75000 -0.82369 0.17500
v -1.25000 -0.82369 0.17500
v -2.75000 -1.02500 0.37631
v -1.25000 -1.02500 0.37631
v -2.75000 -1.30000 0.45000
v -1.25000 -1.30000 0.45000
v -2.75000 -1.57500 0.37631
v -1.25000 -1.57500 0.37631
v -2.75000 -1.77631 0.17500
v -1.25000 -1.77631 0.17500
v -2.75000 -1.85000 -0.10000
v -1.25000 -1.85000 -0.10000
v -2.75000 -1.77631 -0.37500
v -1.25000 -1.77631 -0.37500
v -2.75000 -1.57500 -0.57631
v -1.25000 -1.57500 -0.57631
v -2.75000 -1.30000 -0.65000
v -1.25000 -1.30000 -0.65000
v -2.75000 -1.02500 -0.57631
v -1.25000 -1.02500 -0.57631
v -2.75000 -0.82369 -0.37500
v -1.25000 -0.82369 -0.37500
v -2.95000 -1.04000 -0.10000
v -2.65000 -1.04000 -0.10000
v -2.95000 -1.07483 0.03000
v -2.65000 -1.07483 0.03000
v -2.95000 -1.17000 0.12517
v -2.65000 -1.17000 0.12517
v -2.95000 -1.30000 0.16000
v -2.65000 -1.30000 0.16000
v -2.95000 -1.43000 0.12517
v -2.65000 -1.43000 0.12517
v -2.95000 -1.52517 0.03000
v -2.65000 -1.52517 0.03000
v -2.95000 -1.56000 -0.10000
v -2.65000 -1.56000 -0.10000
v -2.95000 -1.52517 -0.23000
v -2.65000 -1.52517 -0.23000
v -2.95000 -1.43000 -0.32517
v -2.65000 -1.43000 -0.32517
v -2.95000 -1.30000 -0.36000
v -2.65000 -1.30000 -0.36000
v -2.95000 -1.17000 -0.32517
v -2.65000 -1.17000 -0.32517
v -2.95000 -1.07483 -0.23000
v -2.65000 -1.07483 -0.23000
v -2.75000 1.85000 -0.10000
v -1.25000 1.85000 -0.10000
v -2.75000 1.77631 0.17500
v -1.25000 1.77631 0.17500
v -2.75000 1.57500 0.37631
v -1.25000 1.57500 0.37631
v -2.75000 1.30000 0.45000
v -1.25000 1.30000 0.45000
v -2.75000 1.02500 0.37631
v -1.25000 1.02500 0.37631
v -2.75000 0.82369 0.17500
v -1.25000 0.82369 0.17500
v -2.75000 0.75000 -0.10000
v -1.25000 0.75000 -0.10000
v -2.75000 0.82369 -0.37500
v -1.25000 0.82369 -0.37500
v -2.75000 1.02500 -0.57631
v -1.25000 1.02500 -0.57631
v -2.75000 1.30000 -0.65000
v -1.25000 1.30000 -0.65000
v -2.75000 1.57500 -0.57631
v -1.25000 1.57500 -0.57631
v -2.75000 1.77631 -0.37500
v -1.25000 1.77631 -0.37500
v -2.95000 1.56000 -0.10000
v -2.65000 1.56000 -0.10000
v -2.95000 1.52517 0.03000
v -2.65000 1.52517 0.03000
v -2.95000 1.43000 0.12517
v -2.65000 1.43000 0.12517
v -2.95000 1.30000 0.16000
v -2.65000 1.30000 0.16000
v -2.95000 1.17000 0.12517
v -2.65000 1.17000 0.12517
v -2.95000 1.07483 0.03000
v -2.65000 1.07483 0.03000
v -2.95000 1.04000 -0.10000
v -2.65000 1.04000 -0.10000
v -2.95000 1.07483 -0.23000
v -2.65000 1.07483 -0.23000
v -2.95000 1.17000 -0.32517
v -2.65000 1.17000 -0.32517
v -2.95000 1.30000 -0.36000
v -2.65000 1.30000 -0.36000
v -2.95000 1.43000 -0.32517
v -2.65000 1.43000 -0.32517
v -2.95000 1.52517 -0.23000
v -2.65000 1.52517 -0.23000
v 1.25000 0.70000 1.02500
v -0.25000 0.70000 1.02500
v -0.25000 -0.70000 1.02500
v 1.25000 -0.70000 1.02500
v 1.25000 0.70000 0.77500
v -0.25000 0.70000 0.77500
v -0.25000 -0.70000 0.77500
v 1.25000 -0.70000 0.77500
usemtl armor
f 1 2 3 4
usemtl armor
f 5 8 7 6
usemtl armor
f 1 5 6 2
usemtl armor
f 2 6 7 3
usemtl armor
f 3 7 8 4
usemtl armor
f 5 1 4 8
usemtl carbon
f 9 10 11
usemtl carbon
f 9 11 13
usemtl carbon
f 9 13 12
usemtl carbon
f 9 12 10
usemtl carbon
f 10 14 15 11
usemtl carbon
f 12 13 17 16
usemtl carbon
f 10 12 16 14
usemtl carbon
f 11 15 17 13
usemtl carbon
f 14 16 17 15
usemtl dark
f 18 20 21 19
usemtl dark
f 20 22 23 21
usemtl dark
f 22 24 25 23
usemtl dark
f 24 26 27 25
usemtl dark
f 26 28 29 27
usemtl dark
f 28 30 31 29
usemtl dark
f 30 32 33 31
usemtl dark
f 32 34 35 33
usemtl dark
f 34 36 37 35
usemtl dark
f 36 38 39 37
usemtl dark
f 38 40 41 39
usemtl dark
f 40 18 19 41
usemtl dark
f 40 38 36 34 32 30 28 26 24 22 20 18
usemtl dark
f 19 21 23 25 27 29 31 33 35 37 39 41
usemtl orange
f 42 44 45 43
usemtl orange
f 44 46 47 45
usemtl orange
f 46 48 49 47
usemtl orange
f 48 50 51 49
usemtl orange
f 50 52 53 51
usemtl orange
f 52 54 55 53
usemtl orange
f 54 56 57 55
usemtl orange
f 56 58 59 57
usemtl orange
f 58 60 61 59
usemtl orange
f 60 62 63 61
usemtl orange
f 62 64 65 63
usemtl orange
f 64 42 43 65
usemtl orange
f 64 62 60 58 56 54 52 50 48 46 44 42
usemtl orange
f 43 45 47 49 51 53 55 57 59 61 63 65
usemtl dark
f 66 68 69 67
usemtl dark
f 68 70 71 69
usemtl dark
f 70 72 73 71
usemtl dark
f 72 74 75 73
usemtl dark
f 74 76 77 75
usemtl dark
f 76 78 79 77
usemtl dark
f 78 80 81 79
usemtl dark
f 80 82 83 81
usemtl dark
f 82 84 85 83
usemtl dark
f 84 86 87 85
usemtl dark
f 86 88 89 87
usemtl dark
f 88 66 67 89
usemtl dark
f 88 86 84 82 80 78 76 74 72 70 68 66
usemtl dark
f 67 69 71 73 75 77 79 81 83 85 87 89
usemtl orange
f 90 92 93 91
usemtl orange
f 92 94 95 93
usemtl orange
f 94 96 97 95
usemtl orange
f 96 98 99 97
usemtl orange
f 98 100 101 99
usemtl orange
f 100 102 103 101
usemtl orange
f 102 104 105 103
usemtl orange
f 104 106 107 105
usemtl orange
f 106 108 109 107
usemtl orange
f 108 110 111 109
usemtl orange
f 110 112 113 111
usemtl orange
f 112 90 91 113
usemtl orange
f 112 110 108 106 104 102 100 98 96 94 92 90
usemtl orange
f 91 93 95 97 99 101 103 105 107 109 111 113
usemtl red
f 114 115 116 117
usemtl red
f 118 121 120 119
usemtl red
f 114 118 119 115
usemtl red
f 115 119 120 116
usemtl red
f 116 120 121 117
usemtl red
f 118 114 117 121
