mtllib vanguard.mtl
o vanguard
v 3.40000 0.00000 0.00000
v -3.40000 -1.60000 -0.70000
v -3.40000 1.60000 -0.70000
v -3.40000 -1.60000 0.70000
v -3.40000 1.60000 0.70000
v 0.85000 -1.28000 -0.45500
v 0.85000 1.28000 -0.45500
v 0.85000 -1.28000 0.45500
v 0.85000 1.28000 0.45500
v 0.90000 0.00000 0.00000
v -2.30000 -1.25000 -0.60000
v -2.30000 1.25000 -0.60000
v -2.30000 -1.25000 0.60000
v -2.30000 1.25000 0.60000
v -0.30000 -1.00000 -0.39000
v -0.30000 1.00000 -0.39000
v -0.30000 -1.00000 0.39000
v -0.30000 1.00000 0.39000
v 0.50000 -0.80000 -0.16000
v -2.80000 -2.10000 -0.16000
v -3.20000 -1.20000 -0.16000
v -1.00000 -0.35000 -0.16000
v 0.50000 -0.80000 0.16000
v -2.80000 -2.10000 0.16000
v -3.20000 -1.20000 0.16000
v -1.00000 -0.35000 0.16000
v 0.50000 0.80000 -0.16000
v -2.80000 2.10000 -0.16000
v -3.20000 1.20000 -0.16000
v -1.00000 0.35000 -0.16000
v 0.50000 0.80000 0.16000
v -2.80000 2.10000 0.16000
v -3.20000 1.20000 0.16000
v -1.00000 0.35000 0.16000
v -3.15000 -0.77000 -0.05000
v -1.35000 -0.77000 -0.05000
v -3.15000 -0.82091 0.14000
v -1.35000 -0.82091 0.14000
v -3.15000 -0.96000 0.27909
v -1.35000 -0.96000 0.27909
v -3.15000 -1.15000 0.33000
v -1.35000 -1.15000 0.33000
v -3.15000 -1.34000 0.27909
v -1.35000 -1.34000 0.27909
v -3.15000 -1.47909 0.14000
v -1.35000 -1.47909 0.14000
v -3.15000 -1.53000 -0.05000
v -1.35000 -1.53000 -0.05000
v -3.15000 -1.47909 -0.24000
v -1.35000 -1.47909 -0.24000
v -3.15000 -1.34000 -0.37909
v -1.35000 -1.34000 -0.37909
v -3.15000 -1.15000 -0.43000
v -1.35000 -1.15000 -0.43000
v -3.15000 -0.96000 -0.37909
v -1.35000 -0.96000 -0.37909
v -3.15000 -0.82091 -0.24000
v -1.35000 -0.82091 -0.24000
v -3.17500 -0.93000 -0.05000
v -2.92500 -0.93000 -0.05000
v -3.17500 -0.95947 0.06000
v -2.92500 -0.95947 0.06000
v -3.17500 -1.04000 0.14053
v -2.92500 -1.04000 0.14053
v -3.17500 -1.15000 0.17000
v -2.92500 -1.15000 0.17000
v -3.17500 -1.26000 0.14053
v -2.92500 -1.26000 0.14053
v -3.17500 -1.34053 0.06000
v -2.92500 -1.34053 0.06000
v -3.17500 -1.37000 -0.05000
v -2.92500 -1.37000 -0.05000
v -3.17500 -1.34053 -0.16000
v -2.92500 -1.34053 -0.16000
v -3.17500 -1.26000 -0.24053
v -2.92500 -1.26000 -0.24053
v -3.17500 -1.15000 -0.27000
v -2.92500 -1.15000 -0.27000
v -3.17500 -1.04000 -0.24053
v -2.92500 -1.04000 -0.24053
v -3.17500 -0.95947 -0.16000
v -2.92500 -0.95947 -0.16000
v -3.15000 1.53000 -0.05000
v -1.35000 1.53000 -0.05000
v -3.15000 1.47909 0.14000
v -1.35000 1.47909 0.14000
v -3.15000 1.34000 0.27909
v -1.35000 1.34000 0.27909
v -3.15000 1.15000 0.33000
v -1.35000 1.15000 0.33000
v -3.15000 0.96000 0.27909
v -1.35000 0.96000 0.27909
v -3.15000 0.82091 0.14000
v -1.35000 0.82091 0.14000
v -3.15000 0.77000 -0.05000
v -1.35000 0.77000 -0.05000
v -3.15000 0.82091 -0.24000
v -1.35000 0.82091 -0.24000
v -3.15000 0.96000 -0.37909
v -1.35000 0.96000 -0.37909
v -3.15000 1.15000 -0.43000
v -1.35000 1.15000 -0.43000
v -3.15000 1.34000 -0.37909
v -1.35000 1.34000 -0.37909
v -3.15000 1.47909 -0.24000
v -1.35000 1.47909 -0.24000
v -3.17500 1.37000 -0.05000
v -2.92500 1.37000 -0.05000
v -3.17500 1.34053 0.06000
v -2.92500 1.34053 0.06000
v -3.17500 1.26000 0.14053
v -2.92500 1.26000 0.14053
v -3.17500 1.15000 0.17000
v -2.92500 1.15000 0.17000
v -3.17500 1.04000 0.14053
v -2.92500 1.04000 0.14053
v -3.17500 0.95947 0.06000
v -2.92500 0.95947 0.06000
v -3.17500 0.93000 -0.05000
v -2.92500 0.93000 -0.05000
v -3.17500 0.95947 -0.16000
v -2.92500 0.95947 -0.16000
v -3.17500 1.04000 -0.24053
v -2.92500 1.04000 -0.24053
v -3.17500 1.15000 -0.27000
v -2.92500 1.15000 -0.27000
v -3.17500 1.26000 -0.24053
v -2.92500 1.26000 -0.24053
v -3.17500 1.34053 -0.16000
v -2.92500 1.34053 -0.16000
v 0.90000 0.42500 0.69000
v -0.90000 0.42500 0.69000
v -0.90000 -0.42500 0.69000
v 0.90000 -0.42500 0.69000
v 0.90000 0.42500 0.41000
v -0.90000 0.42500 0.41000
v -0.90000 -0.42500 0.41000
v 0.90000 -0.42500 0.41000
v 1.85000 0.50000 0.30000
v 1.35000 0.50000 0.30000
v 1.35000 -0.50000 0.30000
v 1.85000 -0.50000 0.30000
v 1.85000 0.50000 -0.20000
v 1.35000 0.50000 -0.20000
v 1.35000 -0.50000 -0.20000
v 1.85000 -0.50000 -0.20000
usemtl armor
f 1 2 3
usemtl armor
f 1 3 5
usemtl armor
f 1 5 4
usemtl armor
f 1 4 2
usemtl armor
f 2 6 7 3
usemtl armor
f 4 5 9 8
usemtl armor
f 2 4 8 6
usemtl armor
f 3 7 9 5
usemtl armor
f 6 8 9 7
usemtl carbon
f 10 11 12
usemtl carbon
f 10 12 14
usemtl carbon
f 10 14 13
usemtl carbon
f 10 13 11
usemtl carbon
f 11 15 16 12
usemtl carbon
f 13 14 18 17
usemtl carbon
f 11 13 17 15
usemtl carbon
f 12 16 18 14
usemtl carbon
f 15 17 18 16
usemtl armor
f 23 24 25 26
usemtl armor
f 22 21 20 19
usemtl armor
f 19 20 24 23
usemtl armor
f 20 21 25 24
usemtl armor
f 21 22 26 25
usemtl armor
f 22 19 23 26
usemtl armor
f 31 32 33 34
usemtl armor
f 30 29 28 27
usemtl armor
f 27 28 32 31
usemtl armor
f 28 29 33 32
usemtl armor
f 29 30 34 33
usemtl armor
f 30 27 31 34
usemtl dark
f 35 37 38 36
usemtl dark
f 37 39 40 38
usemtl dark
f 39 41 42 40
usemtl dark
f 41 43 44 42
usemtl dark
f 43 45 46 44
usemtl dark
f 45 47 48 46
usemtl dark
f 47 49 50 48
usemtl dark
f 49 51 52 50
usemtl dark
f 51 53 54 52
usemtl dark
f 53 55 56 54
usemtl dark
f 55 57 58 56
usemtl dark
f 57 35 36 58
usemtl dark
f 57 55 53 51 49 47 45 43 41 39 37 35
usemtl dark
f 36 38 40 42 44 46 48 50 52 54 56 58
usemtl cyan
f 59 61 62 60
usemtl cyan
f 61 63 64 62
usemtl cyan
f 63 65 66 64
usemtl cyan
f 65 67 68 66
usemtl cyan
f 67 69 70 68
usemtl cyan
f 69 71 72 70
usemtl cyan
f 71 73 74 72
usemtl cyan
f 73 75 76 74
usemtl cyan
f 75 77 78 76
usemtl cyan
f 77 79 80 78
usemtl cyan
f 79 81 82 80
usemtl cyan
f 81 59 60 82
usemtl cyan
f 81 79 77 75 73 71 69 67 65 63 61 59
usemtl cyan
f 60 62 64 66 68 70 72 74 76 78 80 82
usemtl dark
f 83 85 86 84
usemtl dark
f 85 87 88 86
usemtl dark
f 87 89 90 88
usemtl dark
f 89 91 92 90
usemtl dark
f 91 93 94 92
usemtl dark
f 93 95 96 94
usemtl dark
f 95 97 98 96
usemtl dark
f 97 99 100 98
usemtl dark
f 99 101 102 100
usemtl dark
f 101 103 104 102
usemtl dark
f 103 105 106 104
usemtl dark
f 105 83 84 106
usemtl dark
f 105 103 101 99 97 95 93 91 89 87 85 83
usemtl dark
f 84 86 88 90 92 94 96 98 100 102 104 106
usemtl cyan
f 107 109 110 108
usemtl cyan
f 109 111 112 110
usemtl cyan
f 111 113 114 112
usemtl cyan
f 113 115 116 114
usemtl cyan
f 115 117 118 116
usemtl cyan
f 117 119 120 118
usemtl cyan
f 119 121 122 120
usemtl cyan
f 121 123 124 122
usemtl cyan
f 123 125 126 124
usemtl cyan
f 125 127 128 126
usemtl cyan
f 127 129 130 128
usemtl cyan
f 129 107 108 130
usemtl cyan
f 129 127 125 123 121 119 117 115 113 111 109 107
usemtl cyan
f 108 110 112 114 116 118 120 122 124 126 128 130
usemtl glass
f 131 132 133 134
usemtl glass
f 135 138 137 136
usemtl glass
f 131 135 136 132
usemtl glass
f 132 136 137 133
usemtl glass
f 133 137 138 134
usemtl glass
f 135 131 134 138
usemtl cyan
f 139 140 141 142
usemtl cyan
f 143 146 145 144
usemtl cyan
f 139 143 144 140
usemtl cyan
f 140 144 145 141
usemtl cyan
f 141 145 146 142
usemtl cyan
f 143 139 142 146
