mtllib weaver.mtl
o weaver
v 2.10000 0.00000 0.00000
v -2.10000 -1.20000 -0.50000
v -2.10000 1.20000 -0.50000
v -2.10000 -1.20000 0.50000
v -2.10000 1.20000 0.50000
v 0.52500 -0.96000 -0.32500
v 0.52500 0.96000 -0.32500
v 0.52500 -0.96000 0.32500
v 0.52500 0.96000 0.32500
v -1.90000 -1.04000 0.00000
v 0.30000 -1.04000 0.00000
v -1.90000 -1.06144 0.08000
v 0.30000 -1.06144 0.08000
v -1.90000 -1.12000 0.13856
v 0.30000 -1.12000 0.13856
v -1.90000 -1.20000 0.16000
v 0.30000 -1.20000 0.16000
v -1.90000 -1.28000 0.13856
v 0.30000 -1.28000 0.13856
v -1.90000 -1.33856 0.08000
v 0.30000 -1.33856 0.08000
v -1.90000 -1.36000 0.00000
v 0.30000 -1.36000 0.00000
v -1.90000 -1.33856 -0.08000
v 0.30000 -1.33856 -0.08000
v -1.90000 -1.28000 -0.13856
v 0.30000 -1.28000 -0.13856
v -1.90000 -1.20000 -0.16000
v 0.30000 -1.20000 -0.16000
v -1.90000 -1.12000 -0.13856
v 0.30000 -1.12000 -0.13856
v -1.90000 -1.06144 -0.08000
v 0.30000 -1.06144 -0.08000
v -1.90000 -0.44000 0.00000
v 0.30000 -0.44000 0.00000
v -1.90000 -0.46144 0.08000
v 0.30000 -0.46144 0.08000
v -1.90000 -0.52000 0.13856
v 0.30000 -0.52000 0.13856
v -1.90000 -0.60000 0.16000
v 0.30000 -0.60000 0.16000
v -1.90000 -0.68000 0.13856
v 0.30000 -0.68000 0.13856
v -1.90000 -0.73856 0.08000
v 0.30000 -0.73856 0.08000
v -1.90000 -0.76000 0.00000
v 0.30000 -0.76000 0.00000
v -1.90000 -0.73856 -0.08000
v 0.30000 -0.73856 -0.08000
v -1.90000 -0.68000 -0.13856
v 0.30000 -0.68000 -0.13856
v -1.90000 -0.60000 -0.16000
v 0.30000 -0.60000 -0.16000
v -1.90000 -0.52000 -0.13856
v 0.30000 -0.52000 -0.13856
v -1.90000 -0.46144 -0.08000
v 0.30000 -0.46144 -0.08000
v -1.90000 0.76000 0.00000
v 0.30000 0.76000 0.00000
v -1.90000 0.73856 0.08000
v 0.30000 0.73856 0.08000
v -1.90000 0.68000 0.13856
v 0.30000 0.68000 0.13856
v -1.90000 0.60000 0.16000
v 0.30000 0.60000 0.16000
v -1.90000 0.52000 0.13856
v 0.30000 0.52000 0.13856
v -1.90000 0.46144 0.08000
v 0.30000 0.46144 0.08000
v -1.90000 0.44000 0.00000
v 0.30000 0.44000 0.00000
v -1.90000 0.46144 -0.08000
v 0.30000 0.46144 -0.08000
v -1.90000 0.52000 -0.13856
v 0.30000 0.52000 -0.13856
v -1.90000 0.60000 -0.16000
v 0.30000 0.60000 -0.16000
v -1.90000 0.68000 -0.13856
v 0.30000 0.68000 -0.13856
v -1.90000 0.73856 -0.08000
v 0.30000 0.73856 -0.08000
v -1.90000 1.36000 0.00000
v 0.30000 1.36000 0.00000
v -1.90000 1.33856 0.08000
v 0.30000 1.33856 0.08000
v -1.90000 1.28000 0.13856
v 0.30000 1.28000 0.13856
v -1.90000 1.20000 0.16000
v 0.30000 1.20000 0.16000
v -1.90000 1.12000 0.13856
v 0.30000 1.12000 0.13856
v -1.90000 1.06144 0.08000
v 0.30000 1.06144 0.08000
v -1.90000 1.04000 0.00000
v 0.30000 1.04000 0.00000
v -1.90000 1.06144 -0.08000
v 0.30000 1.06144 -0.08000
v -1.90000 1.12000 -0.13856
v 0.30000 1.12000 -0.13856
v -1.90000 1.20000 -0.16000
v 0.30000 1.20000 -0.16000
v -1.90000 1.28000 -0.13856
v 0.30000 1.28000 -0.13856
v -1.90000 1.33856 -0.08000
v 0.30000 1.33856 -0.08000
v 0.40000 0.45000 0.10000
v 0.80000 0.45000 0.10000
v 0.40000 0.38971 0.32500
v 0.80000 0.38971 0.32500
v 0.40000 0.22500 0.48971
v 0.80000 0.22500 0.48971
v 0.40000 0.00000 0.55000
v 0.80000 0.00000 0.55000
v 0.40000 -0.22500 0.48971
v 0.80000 -0.22500 0.48971
v 0.40000 -0.38971 0.32500
v 0.80000 -0.38971 0.32500
v 0.40000 -0.45000 0.10000
v 0.80000 -0.45000 0.10000
v 0.40000 -0.38971 -0.12500
v 0.80000 -0.38971 -0.12500
v 0.40000 -0.22500 -0.28971
v 0.80000 -0.22500 -0.28971
v 0.40000 -0.00000 -0.35000
v 0.80000 -0.00000 -0.35000
v 0.40000 0.22500 -0.28971
v 0.80000 0.22500 -0.28971
v 0.40000 0.38971 -0.12500
v 0.80000 0.38971 -0.12500
usemtl dark
f 1 2 3
usemtl dark
f 1 3 5
usemtl dark
f 1 5 4
usemtl dark
f 1 4 2
usemtl dark
f 2 6 7 3
usemtl dark
f 4 5 9 8
usemtl dark
f 2 4 8 6
usemtl dark
f 3 7 9 5
usemtl dark
f 6 8 9 7
usemtl carbon
f 10 12 13 11
usemtl carbon
f 12 14 15 13
usemtl carbon
f 14 16 17 15
usemtl carbon
f 16 18 19 17
usemtl carbon
f 18 20 21 19
usemtl carbon
f 20 22 23 21
usemtl carbon
f 22 24 25 23
usemtl carbon
f 24 26 27 25
usemtl carbon
f 26 28 29 27
usemtl carbon
f 28 30 31 29
usemtl carbon
f 30 32 33 31
usemtl carbon
f 32 10 11 33
usemtl carbon
f 32 30 28 26 24 22 20 18 16 14 12 10
usemtl carbon
f 11 13 15 17 19 21 23 25 27 29 31 33
usemtl carbon
f 34 36 37 35
usemtl carbon
f 36 38 39 37
usemtl carbon
f 38 40 41 39
usemtl carbon
f 40 42 43 41
usemtl carbon
f 42 44 45 43
usemtl carbon
f 44 46 47 45
usemtl carbon
f 46 48 49 47
usemtl carbon
f 48 50 51 49
usemtl carbon
f 50 52 53 51
usemtl carbon
f 52 54 55 53
usemtl carbon
f 54 56 57 55
usemtl carbon
f 56 34 35 57
usemtl carbon
f 56 54 52 50 48 46 44 42 40 38 36 34
usemtl carbon
f 35 37 39 41 43 45 47 49 51 53 55 57
usemtl carbon
f 58 60 61 59
usemtl carbon
f 60 62 63 61
usemtl carbon
f 62 64 65 63
usemtl carbon
f 64 66 67 65
usemtl carbon
f 66 68 69 67
usemtl carbon
f 68 70 71 69
usemtl carbon
f 70 72 73 71
usemtl carbon
f 72 74 75 73
usemtl carbon
f 74 76 77 75
usemtl carbon
f 76 78 79 77
usemtl carbon
f 78 80 81 79
usemtl carbon
f 80 58 59 81
usemtl carbon
f 80 78 76 74 72 70 68 66 64 62 60 58
usemtl carbon
f 59 61 63 65 67 69 71 73 75 77 79 81
usemtl carbon
f 82 84 85 83
usemtl carbon
f 84 86 87 85
usemtl carbon
f 86 88 89 87
usemtl carbon
f 88 90 91 89
usemtl carbon
f 90 92 93 91
usemtl carbon
f 92 94 95 93
usemtl carbon
f 94 96 97 95
usemtl carbon
f 96 98 99 97
usemtl carbon
f 98 100 101 99
usemtl carbon
f 100 102 103 101
usemtl carbon
f 102 104 105 103
usemtl carbon
f 104 82 83 105
usemtl carbon
f 104 102 100 98 96 94 92 90 88 86 84 82
usemtl carbon
f 83 85 87 89 91 93 95 97 99 101 103 105
usemtl magenta
f 106 108 109 107
usemtl magenta
f 108 110 111 109
usemtl magenta
f 110 112 113 111
usemtl magenta
f 112 114 115 113
usemtl magenta
f 114 116 117 115
usemtl magenta
f 116 118 119 117
usemtl magenta
f 118 120 121 119
usemtl magenta
f 120 122 123 121
usemtl magenta
f 122 124 125 123
usemtl magenta
f 124 126 127 125
usemtl magenta
f 126 128 129 127
usemtl magenta
f 128 106 107 129
usemtl magenta
f 128 126 124 122 120 118 116 114 112 110 108 106
usemtl magenta
f 107 109 111 113 115 117 119 121 123 125 127 129
